<?xml version="1.0" encoding="utf-8"?>
<svg version="1.1" xmlns="http://www.w3.org/2000/svg" xmlns:xlink="http://www.w3.org/1999/xlink" x="0px" y="0px"
	 viewBox="0 0 293 200" style="enable-background:new 0 0 293 200;" xml:space="preserve">
<style type="text/css">
	.st0{fill-rule:evenodd;clip-rule:evenodd;fill:#009FE3;}
	.st1{fill-rule:evenodd;clip-rule:evenodd;fill:#FFFFFF;}
	.st2{fill:#FFFFFF;}
</style>
<g>
	<path class="st0" d="M146.3,199.9C65.6,199.7,0.1,154.9,0.2,99.7C0.4,44.6,66,0,146.8,0.2c80.8,0.2,146.2,45,146.1,100.2
		C292.8,155.5,227.1,200.1,146.3,199.9z"/>
	<g>
		<path class="st1" d="M125.6,109.6l-7.2,0c-4.9,0-8.5-0.8-10.9-2.3c-2.3-1.5-3.5-3.8-3.5-7c0-3.1,1.2-5.5,3.5-7
			c2.3-1.5,6-2.3,10.8-2.3l15.1,0c5.1,0,8.8,1.1,11,3.1c2.2,2.1,3.3,5.5,3.3,10.2c0,12.4-3.9,22.4-11.6,30.1
			c-7.7,7.7-17.9,11.5-30.4,11.5c-12.6,0-22.9-4.3-30.9-12.9c-8-8.6-12-19.7-12-33.3c0-14,4.2-25.2,12.4-33.5
			c8.2-8.3,19.3-12.4,33.1-12.4c9.2,0,17,1.9,23.4,5.5c6.4,3.7,9.6,7.9,9.6,12.6c0,2.5-0.9,4.6-2.6,6.5c-1.7,1.9-3.8,2.8-6.1,2.8
			c-1.5,0-4.9-1.4-10.2-4.3c-5.3-2.8-10.2-4.3-14.9-4.3c-6.9,0-12.4,2.4-16.5,7.1C87,84.7,85,91.2,85,99.5c0,8.4,2,15.1,6.1,20.1
			c4.1,5,9.5,7.5,16.3,7.5c5.4,0,9.8-1.6,13.1-4.7C123.7,119.2,125.5,114.9,125.6,109.6z"/>
		<path class="st1" d="M153.2,106.2l0.1-36.6c0-4.7,0.9-8.2,2.5-10.6c1.7-2.3,4.3-3.5,7.7-3.5c3.5,0,6,1.2,7.7,3.5
			c1.7,2.3,2.5,5.9,2.5,10.6l-0.1,34.4c0,7.7,1.5,13.5,4.5,17.3c3,3.9,7.5,5.8,13.5,5.9c6,0,10.5-1.9,13.5-5.8
			c3.1-3.9,4.6-9.6,4.6-17.3l0.1-34.4c0-4.7,0.9-8.2,2.5-10.6c1.7-2.3,4.2-3.5,7.7-3.5c3.5,0,6,1.2,7.7,3.5
			c1.7,2.3,2.5,5.9,2.5,10.6l-0.1,36.6c0,12.6-3.4,22.4-10.2,29.4c-6.8,7-16.3,10.4-28.3,10.4c-12.1,0-21.6-3.5-28.4-10.5
			C156.6,128.6,153.2,118.8,153.2,106.2z"/>
		<path class="st1" d="M55.7,131.8c0,4.2-0.8,7.3-2.4,9.3c-1.6,2-4.1,3-7.4,3c-3.4,0-5.9-1-7.5-3.1c-1.6-2-2.5-5.1-2.4-9.3l0.1-34
			c0-4.1,0.8-7.2,2.5-9.2c1.6-2,4.1-3,7.5-3c3.3,0,5.8,1,7.4,3c1.6,2,2.4,5.1,2.4,9.3L55.7,131.8z"/>
		<path class="st1" d="M34.5,66.3c0-3.1,1.1-5.7,3.4-7.9c2.3-2.2,5-3.3,8.2-3.3c3.1,0,5.8,1.1,8,3.3c2.2,2.2,3.3,4.8,3.3,7.9
			c0,3.1-1.1,5.7-3.3,7.9c-2.2,2.1-4.9,3.2-8,3.2c-3.2,0-6-1.1-8.2-3.2C35.6,72,34.5,69.4,34.5,66.3z"/>
		<path class="st1" d="M256.9,132.2c0,4.2-0.8,7.3-2.4,9.3c-1.6,2-4.1,3-7.4,3c-3.4,0-5.9-1-7.5-3.1c-1.6-2-2.5-5.1-2.4-9.3l0.1-34
			c0-4.2,0.8-7.2,2.5-9.2c1.6-2,4.1-3,7.5-3c3.3,0,5.8,1,7.4,3c1.6,2,2.4,5.1,2.4,9.3L256.9,132.2z"/>
		<path class="st1" d="M235.9,66.7c0-3.1,1.1-5.7,3.4-7.9c2.3-2.2,5-3.3,8.2-3.3c3.1,0,5.8,1.1,8,3.3c2.2,2.2,3.3,4.8,3.3,7.9
			c0,3.1-1.1,5.7-3.3,7.9c-2.2,2.1-4.9,3.2-8,3.2c-3.2,0-6-1.1-8.2-3.2C237,72.4,235.8,69.8,235.9,66.7z"/>
	</g>
	<g>
		<path class="st2" d="M267.9,137.8c-0.2-0.5-0.6-1-1-1.4c-0.4-0.4-0.9-0.7-1.4-1c-0.6-0.2-1.2-0.4-1.8-0.4c-0.6,0-1.2,0.1-1.8,0.4
			c-0.5,0.2-1,0.5-1.4,1c-0.4,0.4-0.7,0.9-1,1.4c-0.2,0.6-0.4,1.1-0.4,1.8c0,0.6,0.1,1.2,0.4,1.8c0.2,0.5,0.6,1,1,1.4
			c0.4,0.4,0.9,0.7,1.4,1c0.6,0.2,1.2,0.4,1.8,0.4c0.6,0,1.2-0.1,1.8-0.4c0.5-0.2,1-0.5,1.4-1c0.4-0.4,0.7-0.9,1-1.4
			c0.2-0.6,0.4-1.1,0.4-1.8C268.2,138.9,268.1,138.3,267.9,137.8z M263.7,143.1c-2,0-3.6-1.6-3.6-3.6s1.6-3.6,3.6-3.6
			c2,0,3.6,1.6,3.6,3.6S265.7,143.1,263.7,143.1z"/>
		<g>
			<g>
				<polygon class="st2" points="260.5,138.7 261.6,138.7 261.6,141.3 262.2,141.3 262.2,138.7 263.2,138.7 263.2,138.2 
					260.5,138.2 				"/>
				<path class="st2" d="M262.2,141.4h-0.7v-2.6h-1.1v-0.6h2.8v0.6h-1.1V141.4z M261.6,141.3h0.5v-2.6h1.1v-0.4h-2.6v0.4h1.1V141.3z
					"/>
			</g>
			<g>
				<polygon class="st2" points="266.4,138.2 265.8,138.2 264.9,140.5 264,138.2 263.5,138.2 263.2,141.3 263.8,141.3 264,139.4 
					264.7,141.3 265.1,141.3 265.9,139.4 266.1,141.3 266.6,141.3 				"/>
				<path class="st2" d="M266.7,141.4H266l0,0l-0.1-1.7l-0.7,1.8h-0.5l0,0l-0.7-1.7l-0.1,1.8h-0.7l0-0.1l0.2-3.2h0.6l0,0l0.9,2.2
					l0.9-2.2h0.6l0,0L266.7,141.4z M266.1,141.3h0.5l-0.2-3h-0.5l-0.9,2.4l-0.9-2.4h-0.5l-0.2,3h0.5l0.1-2.1l0.9,2.1h0.3l0.9-2.1
					L266.1,141.3z"/>
			</g>
		</g>
	</g>
</g>
</svg>
