<?xml version="1.0" encoding="utf-8"?>
<!-- Generator: Adobe Illustrator 16.0.0, SVG Export Plug-In . SVG Version: 6.00 Build 0)  -->
<!DOCTYPE svg PUBLIC "-//W3C//DTD SVG 1.1//EN" "http://www.w3.org/Graphics/SVG/1.1/DTD/svg11.dtd">
<svg version="1.1" id="Layer_1" xmlns="http://www.w3.org/2000/svg" xmlns:xlink="http://www.w3.org/1999/xlink" x="0px" y="0px"
	 width="864px" height="864px" viewBox="0 0 864 864" enable-background="new 0 0 864 864" xml:space="preserve">
<path fill-rule="evenodd" clip-rule="evenodd" fill="#3D9946" d="M446.426,713c-20.455-0.733-41.035-0.283-61.339-2.438
	c-47.545-5.044-94.454-14.041-139.795-29.463c-23.722-8.068-46.706-18.305-70.034-27.536c-6.651-2.633-10.425-7.577-13.049-14.165
	c-14.827-37.229-24.307-75.861-31.851-115.132c-9.898-51.52-9.617-103.504-6.231-155.335c3.187-48.778,14.858-96.209,30.847-142.465
	c1.846-5.34,3.803-10.641,5.596-15.998c3.201-9.567,9.441-15.891,18.763-20.05c42.837-19.112,87.261-33.087,133.114-42.854
	c55.749-11.874,112.03-15.168,168.848-12.2c77.643,4.056,151.562,23.113,222.91,53.506c11.143,4.746,17.191,11.661,21.4,22.725
	c17.84,46.904,29.461,95.393,35.35,144.998c3.324,28.004,3.092,56.536,2.973,84.824c-0.289,68.39-16.207,133.748-40.061,197.456
	c-2.775,7.409-7.279,12.463-14.379,15.566c-43.205,18.881-87.389,34.926-133.756,44.031c-23.797,4.674-47.775,8.812-71.861,11.5
	c-18.984,2.119-38.256,1.65-57.399,2.332C446.456,712.535,446.441,712.768,446.426,713z"/>
<path fill-rule="evenodd" clip-rule="evenodd" fill="#E5E65D" d="M442.379,689.088c-25.56-1.818-51.244-2.613-76.657-5.663
	c-58.811-7.056-115.299-23.098-169.647-46.691c-6.936-3.011-11.197-8.034-13.643-14.973c-9.625-27.295-17.952-54.961-23.832-83.325
	c-8.558-41.284-11.277-83.053-10.844-125.141c0.662-64.34,12.067-126.663,33.857-187.171c3.296-9.151,9.153-14.734,18.061-18.514
	c51.734-21.955,105.367-37.185,161.028-44.552c25.873-3.425,52.035-5.253,78.124-6.222c16.053-0.596,32.215,1.801,48.328,2.852
	c32.439,2.115,64.529,6.589,96.193,14.056c38.781,9.145,76.303,22.006,112.734,38.072c1.746,0.77,3.648,2.5,4.305,4.228
	c16.342,43.052,28.07,87.337,34.18,132.993c4.986,37.27,4.852,74.794,3.271,112.253c-2.26,53.613-14.67,105.218-32.225,155.758
	c-3.645,10.49-9.555,17.155-20.014,21.596c-51.281,21.776-104.316,36.886-159.58,44.064c-13.846,1.799-27.672,4.105-41.584,4.959
	c-13.939,0.856-27.975,0.188-41.969,0.188C442.438,688.266,442.408,688.677,442.379,689.088z M349.906,562.802
	c-0.401,0.378-0.802,0.757-1.203,1.135c-1.755-0.805-3.579-1.487-5.255-2.432c-37.992-21.401-72.301-47.564-102.169-79.404
	c-2.455-2.617-4.602-5.775-6.022-9.059c-2.921-6.748-2.034-9.357,4.889-11.201c13.147-3.501,26.413-6.753,39.809-9.067
	c13.578-2.346,27.361-3.537,41.079-5.011c4.468-0.479,6.468-2.54,6.732-6.97c0.197-3.305,0.873-6.594,1.52-9.853
	c5.034-25.366,12.387-50.01,23.343-73.485c1.849-3.962,1.081-5.555-3.215-6.379c-9.141-1.753-18.149-4.247-27.323-5.761
	c-8.056-1.33-12.327-5.583-13.152-13.823c0.67-0.271,1.386-0.639,2.145-0.855c25.408-7.245,50.804-14.529,76.239-21.674
	c7.422-2.085,9.809-4.664,10.829-12.85c0.766-6.146-1.46-11.625-7.432-13.853c-6.271-2.339-13.088-4.147-19.731-4.386
	c-22.458-0.805-43.76,5.467-64.933,12.067c-3.012,0.939-6.052,1.792-9.079,2.684c0.295-1.604,0.932-2.358,1.733-2.837
	c7.989-4.772,15.94-9.613,24.047-14.178c2.897-1.631,3.64-3.494,1.47-5.842c-3.692-3.995-7.576-7.829-11.591-11.499
	c-1.841-1.683-4.184-2.817-6.299-4.2c8.097-0.198,15.924,1.579,21.173,6.664c7.916,7.667,16.003,7.524,25.374,4.732
	c4.336-1.292,8.95-1.654,12.938-2.351c-1.698-14.983-10.59-25.156-19.503-35.369c15.74,5.785,27.945,15.341,35.43,30.528
	c1.082,2.195,3.667,4.471,5.978,5.062c4.293,1.098,8.896,0.984,13.371,1.369c3.754,0.323,6.36-1.188,6.545-5.091
	c0.313-6.591,0.979-13.292,0.172-19.781c-1.237-9.943-5.749-18.798-11.791-27.04c1.948,0.423,3.56,1.138,5.027,2.08
	c10.301,6.61,18.039,15.485,21.504,27.265c5.127,17.431,3.217,34.939-1.085,52.259c-1.518,6.108-1.177,6.707,5.176,5.724
	c6.741-1.043,13.46-2.245,20.214-3.193c6.576-0.923,13.186-1.614,19.779-2.407c-4.031,4.973-8.496,8.675-12.844,12.509
	c-10.676,9.412-22.476,15.376-37.261,12.54c-3.135-0.602-4.819,0.463-5.49,3.853c-0.935,4.717-2.569,9.29-3.708,13.972
	c-4.375,17.971-8.443,36.004-6.974,54.707c1.031,13.122,11.045,23.664,24.077,25.374c4.616,0.605,9.289,0.93,13.944,1.043
	c18.157,0.441,36.358,0.111,54.466,1.277c19.062,1.228,38.051,3.733,57.043,5.92c4.535,0.522,8.961,1.999,15.092,3.42
	c-0.695-9.116-0.787-17.207-2.039-25.115c-1.803-11.401-7.783-21.115-14.057-30.594c-1.527-2.309-2.848-4.755-4.262-7.138
	c4.627,1.845,8.502,4.127,12.127,6.754c16.492,11.948,29.771,26.565,37.49,45.722c3.033,7.534,2.104,9.789-5.467,13.137
	c-3.879,1.717-7.785,3.369-11.932,5.16c0.939,1.459,1.42,2.559,2.201,3.366c8.268,8.544,13.717,18.838,17.738,29.819
	c5.254,14.349,9.867,28.93,14.871,43.371c3.049,8.803,8.576,15.798,16.494,20.693c8.207,5.073,16.457,10.109,24.945,14.688
	c6.963,3.758,12.42,8.882,16.635,15.445c7.467,11.624,14.861,23.293,22.35,34.902c1.367,2.12,3.035,4.046,5.18,6.873
	c1.418-3.61,2.537-6.009,3.318-8.512c10.984-35.142,19.674-70.821,23.793-107.455c5.008-44.528,5.162-89.145-0.064-133.647
	c-5.32-45.29-16.607-89.193-32.973-131.758c-0.77-2.004-2.883-4.056-4.877-4.942c-67.023-29.78-137.301-46.241-210.447-50.006
	c-42.166-2.17-84.291-0.315-126.079,6.04c-49.706,7.558-97.578,21.701-144.036,40.91c-7.88,3.258-11.953,8.205-14.655,16.012
	c-18.559,53.616-30.21,108.523-32.979,165.31c-1.866,38.276,0.582,76.233,6.667,113.987c5.944,36.873,16.191,72.64,28.334,107.907
	c1.141,3.313,2.851,5.145,5.97,6.579c65.201,29.989,134.191,45.132,205.288,50.593c43.596,3.35,87.348,1.071,130.533-5.993
	c51.174-8.37,100.963-22.109,148.488-43.289c2.059-0.917,3.955-2.199,6.006-3.355c-0.523-1.285-0.732-2.1-1.154-2.785
	c-11.621-18.941-25.186-36.407-40.361-52.615c-1.268-1.355-3.314-2.171-5.15-2.776c-14.365-4.729-28.646-9.771-43.182-13.914
	c-33.811-9.637-64.277-24.615-87.18-52.32c-0.211-0.255-0.445-0.544-0.732-0.672c-1.303-0.583-2.648-1.636-3.941-1.586
	c-18.131,0.694-36.279,1.208-54.375,2.47c-11.597,0.807-23.079,3.182-34.672,4.131c-25.477,2.085-49.932-3.434-74.183-10.549
	c-20.692-6.07-40.871-14.241-62.683-15.961c-4.351-0.343-8.69-0.834-13.718-1.324c0.625,1.901,0.745,2.924,1.248,3.697
	c4.701,7.237,9,14.799,14.308,21.565c12.707,16.198,27.192,30.182,48.032,35.665c2.62,0.689,5.42,2.954,6.901,5.276
	C342.788,549.312,346.217,556.141,349.906,562.802z"/>
</svg>
